<?xml version="1.0" standalone="no"?>
<!DOCTYPE svg PUBLIC "-//W3C//DTD SVG 20010904//EN"
 "http://www.w3.org/TR/2001/REC-SVG-20010904/DTD/svg10.dtd">
<svg version="1.0" xmlns="http://www.w3.org/2000/svg"
 width="298.000000pt" height="298.000000pt" viewBox="0 0 298.000000 298.000000"
 preserveAspectRatio="xMidYMid meet">
<metadata>
Created by potrace 1.14, written by Peter Selinger 2001-2017
</metadata>
<g transform="translate(0.000000,298.000000) scale(0.100000,-0.100000)"
fill="#000000" stroke="none">
<path d="M1315 2225 c-158 -35 -263 -92 -384 -208 -98 -94 -180 -226 -226
-362 -76 -230 -68 -495 21 -671 105 -208 347 -317 619 -279 73 10 59 7 124 29
195 67 352 243 420 472 27 93 27 104 -4 104 -19 0 -28 -8 -39 -34 -23 -54 -79
-137 -124 -183 -93 -94 -197 -143 -317 -151 -257 -16 -421 168 -429 481 -9
370 203 741 435 762 147 13 220 -107 216 -354 l-1 -106 192 -3 192 -2 0 37 c0
21 -7 69 -15 106 -41 194 -160 315 -356 364 -51 12 -265 11 -324 -2z"/>
<path d="M2095 1121 c-105 -26 -165 -108 -160 -218 5 -94 92 -181 185 -184 85
-3 107 1 153 32 132 87 115 294 -30 355 -40 17 -109 24 -148 15z"/>
</g>
</svg>
